<svg width="500" height="500" viewBox="0 0 500 500" fill="none" xmlns="http://www.w3.org/2000/svg">
<circle cx="250" cy="250" r="250" fill="#29A8FD" fill-opacity="0.25"/>
<mask id="path-2-outside-1_103_76" maskUnits="userSpaceOnUse" x="63" y="221" width="374" height="128" fill="black">
<rect fill="white" x="63" y="221" width="374" height="128"/>
<path fill-rule="evenodd" clip-rule="evenodd" d="M73 338.366L84.5447 231H330.809L426.268 303.732V338.366H362.693C361.196 311.335 338.803 289.878 311.398 289.878C283.994 289.878 261.601 311.335 260.104 338.366H210.302C208.806 311.335 186.413 289.878 159.008 289.878C131.604 289.878 109.211 311.335 107.714 338.366H73Z"/>
</mask>
<path d="M84.5447 231V221C79.4357 221 75.1482 224.851 74.602 229.931L84.5447 231ZM73 338.366L63.0573 337.297C62.7539 340.119 63.6639 342.937 65.5605 345.048C67.4572 347.16 70.1617 348.366 73 348.366V338.366ZM330.809 231L336.869 223.046C335.127 221.719 332.998 221 330.809 221V231ZM426.268 303.732H436.268C436.268 300.611 434.811 297.669 432.329 295.777L426.268 303.732ZM426.268 338.366V348.366C431.791 348.366 436.268 343.889 436.268 338.366H426.268ZM362.693 338.366L352.708 338.919C353.001 344.219 357.385 348.366 362.693 348.366V338.366ZM260.104 338.366V348.366C265.412 348.366 269.795 344.219 270.089 338.919L260.104 338.366ZM210.302 338.366L200.318 338.919C200.611 344.219 204.994 348.366 210.302 348.366V338.366ZM107.714 338.366V348.366C113.022 348.366 117.405 344.219 117.699 338.919L107.714 338.366ZM74.602 229.931L63.0573 337.297L82.9427 339.435L94.4874 232.069L74.602 229.931ZM330.809 221H84.5447V241H330.809V221ZM432.329 295.777L336.869 223.046L324.748 238.954L420.208 311.686L432.329 295.777ZM436.268 338.366V303.732H416.268V338.366H436.268ZM362.693 348.366H426.268V328.366H362.693V348.366ZM372.677 337.813C370.889 305.512 344.14 279.878 311.398 279.878V299.878C333.465 299.878 351.503 317.159 352.708 338.919L372.677 337.813ZM311.398 279.878C278.656 279.878 251.908 305.512 250.119 337.813L270.089 338.919C271.294 317.159 289.331 299.878 311.398 299.878V279.878ZM210.302 348.366H260.104V328.366H210.302V348.366ZM220.287 337.813C218.498 305.512 191.75 279.878 159.008 279.878V299.878C181.075 299.878 199.113 317.159 200.318 338.919L220.287 337.813ZM159.008 279.878C126.266 279.878 99.5179 305.512 97.7292 337.813L117.699 338.919C118.904 317.159 136.941 299.878 159.008 299.878V279.878ZM73 348.366H107.714V328.366H73V348.366Z" fill="#29A8FD" mask="url(#path-2-outside-1_103_76)"/>
<path d="M186 341.5C186 356.062 173.986 368 159 368C144.014 368 132 356.062 132 341.5C132 326.938 144.014 315 159 315C173.986 315 186 326.938 186 341.5Z" stroke="#29A8FD" stroke-width="10"/>
<circle cx="311.5" cy="341.5" r="26.5" stroke="#29A8FD" stroke-width="10"/>
<path d="M319 179.5C319 186.404 313.404 192 306.5 192C299.596 192 294 186.404 294 179.5C294 172.596 299.596 167 306.5 167C313.404 167 319 172.596 319 179.5Z" fill="#29A8FD"/>
<path fill-rule="evenodd" clip-rule="evenodd" d="M302 201.55V221.713C302 224.475 304.239 226.713 307 226.713C309.761 226.713 312 224.475 312 221.713V201.323C310.24 201.765 308.397 202 306.5 202C304.959 202 303.454 201.845 302 201.55Z" fill="#29A8FD"/>
<path fill-rule="evenodd" clip-rule="evenodd" d="M306.5 152.839C306.5 155.6 308.769 157.779 311.457 158.413C319.086 160.214 325.146 166.078 327.224 173.596C327.942 176.191 330.096 178.339 332.788 178.339C335.631 178.339 337.951 175.969 337.398 173.18C334.852 160.334 324.494 150.298 311.481 148.231C308.754 147.797 306.5 150.078 306.5 152.839ZM306.5 132.839C306.5 135.6 308.749 137.807 311.491 138.136C330.125 140.37 344.963 154.951 347.587 173.461C347.969 176.156 350.161 178.339 352.883 178.339C355.688 178.339 357.972 176.03 357.643 173.244C354.821 149.307 335.582 130.396 311.494 128.078C308.745 127.814 306.5 130.078 306.5 132.839ZM367.719 173.417C367.979 176.138 370.185 178.339 372.918 178.339C375.71 178.339 377.98 176.048 377.746 173.267C374.802 138.266 346.646 110.439 311.501 108.011C308.746 107.821 306.5 110.078 306.5 112.839C306.5 115.6 308.746 117.818 311.499 118.039C341.169 120.426 364.896 143.872 367.719 173.417Z" fill="#29A8FD"/>
</svg>
