<svg width="500" height="500" viewBox="0 0 500 500" fill="none" xmlns="http://www.w3.org/2000/svg">
<circle cx="250" cy="250" r="250" fill="#29A8FD" fill-opacity="0.25"/>
<mask id="path-2-outside-1_103_3" maskUnits="userSpaceOnUse" x="114" y="51.6" width="272" height="397" fill="black">
<rect fill="white" x="114" y="51.6" width="272" height="397"/>
<path fill-rule="evenodd" clip-rule="evenodd" d="M250 438.4C250 438.4 376 257.188 376 187.6C376 118.012 319.588 61.6 250 61.6C180.412 61.6 124 118.012 124 187.6C124 257.188 250 438.4 250 438.4ZM250 250C282.474 250 308.8 223.674 308.8 191.2C308.8 158.726 282.474 132.4 250 132.4C217.526 132.4 191.2 158.726 191.2 191.2C191.2 223.674 217.526 250 250 250Z"/>
</mask>
<path d="M250 438.4L241.79 444.109C243.659 446.797 246.726 448.4 250 448.4C253.274 448.4 256.341 446.797 258.21 444.109L250 438.4ZM366 187.6C366 202.72 358.942 225.41 347.163 252.108C335.564 278.399 320.021 307.212 304.362 334.057C288.723 360.868 273.068 385.544 261.316 403.528C255.443 412.515 250.552 419.821 247.132 424.873C245.423 427.399 244.082 429.361 243.171 430.688C242.715 431.352 242.367 431.856 242.135 432.193C242.018 432.361 241.931 432.488 241.873 432.571C241.844 432.613 241.822 432.644 241.809 432.664C241.802 432.674 241.797 432.681 241.793 432.686C241.792 432.688 241.791 432.689 241.79 432.691C241.79 432.691 241.79 432.691 250 438.4C258.21 444.109 258.211 444.107 258.213 444.105C258.214 444.104 258.216 444.101 258.218 444.098C258.223 444.091 258.229 444.082 258.237 444.07C258.254 444.046 258.278 444.011 258.31 443.965C258.373 443.874 258.466 443.74 258.588 443.563C258.832 443.21 259.192 442.688 259.659 442.008C260.594 440.646 261.96 438.647 263.696 436.082C267.167 430.953 272.119 423.557 278.059 414.469C289.932 396.3 305.777 371.324 321.638 344.134C337.479 316.977 353.436 287.44 365.462 260.181C377.308 233.331 386 207.274 386 187.6H366ZM250 71.6C314.065 71.6 366 123.535 366 187.6H386C386 112.489 325.111 51.6 250 51.6V71.6ZM134 187.6C134 123.535 185.935 71.6 250 71.6V51.6C174.889 51.6 114 112.489 114 187.6H134ZM250 438.4C258.21 432.691 258.21 432.691 258.21 432.691C258.209 432.689 258.208 432.688 258.207 432.686C258.203 432.681 258.198 432.674 258.191 432.664C258.178 432.644 258.156 432.613 258.127 432.571C258.069 432.488 257.982 432.361 257.865 432.193C257.633 431.856 257.285 431.352 256.829 430.688C255.918 429.361 254.577 427.399 252.868 424.873C249.448 419.821 244.557 412.515 238.684 403.528C226.932 385.544 211.277 360.868 195.638 334.057C179.979 307.212 164.436 278.399 152.837 252.108C141.058 225.41 134 202.72 134 187.6H114C114 207.274 122.692 233.331 134.538 260.181C146.564 287.44 162.521 316.977 178.362 344.134C194.223 371.324 210.068 396.3 221.941 414.469C227.881 423.557 232.833 430.953 236.304 436.082C238.04 438.647 239.406 440.646 240.341 442.008C240.808 442.688 241.168 443.21 241.412 443.563C241.534 443.74 241.627 443.874 241.69 443.965C241.722 444.011 241.746 444.046 241.763 444.07C241.771 444.082 241.777 444.091 241.782 444.098C241.784 444.101 241.786 444.104 241.787 444.105C241.789 444.107 241.79 444.109 250 438.4ZM298.8 191.2C298.8 218.152 276.951 240 250 240V260C287.997 260 318.8 229.197 318.8 191.2H298.8ZM250 142.4C276.951 142.4 298.8 164.249 298.8 191.2H318.8C318.8 153.203 287.997 122.4 250 122.4V142.4ZM201.2 191.2C201.2 164.249 223.049 142.4 250 142.4V122.4C212.003 122.4 181.2 153.203 181.2 191.2H201.2ZM250 240C223.049 240 201.2 218.152 201.2 191.2H181.2C181.2 229.197 212.003 260 250 260V240Z" fill="#29A8FD" mask="url(#path-2-outside-1_103_3)"/>
</svg>
