<svg width="500" height="500" viewBox="0 0 500 500" fill="none" xmlns="http://www.w3.org/2000/svg">
<circle cx="250" cy="250" r="250" fill="#29A8FD" fill-opacity="0.25"/>
<path d="M66 338L204.122 114.967C208.067 108.597 217.359 108.668 221.205 115.098L280.922 214.924C284.498 220.902 292.938 221.483 297.3 216.052L318.869 189.199C323.098 183.933 331.224 184.288 334.978 189.903L434 338" stroke="#29A8FD" stroke-width="10" stroke-linecap="round" stroke-linejoin="round"/>
<path fill-rule="evenodd" clip-rule="evenodd" d="M307.6 227.043L315.444 237.924C316.321 239.14 317.698 239.899 319.194 239.991C320.691 240.082 322.15 239.497 323.169 238.397L327.863 229.007L336.71 246.261C337.889 247.631 339.716 248.259 341.487 247.902C343.259 247.544 344.701 246.259 345.257 244.539L347.934 236.266L340.851 225.673L338.483 232.99L331.79 218.239C330.861 217.159 329.515 216.527 328.091 216.501C326.667 216.475 325.299 217.058 324.331 218.103L319.982 227.119L314.149 219.028L308.994 225.445C308.546 226.003 308.081 226.536 307.6 227.043Z" fill="#29A8FD"/>
<path fill-rule="evenodd" clip-rule="evenodd" d="M175.058 190.388L183.732 204.604C184.602 206.03 186.126 206.927 187.795 206.996C189.463 207.064 191.056 206.295 192.04 204.946L205.458 186.544L216.431 201.906C217.361 203.208 218.857 203.986 220.457 204C222.056 204.014 223.566 203.261 224.518 201.976L231.117 193.067L244.018 205.588C245.329 206.861 247.231 207.317 248.977 206.777C250.723 206.237 252.035 204.788 252.4 202.997L253.391 198.121L245.776 185.391L244.422 192.045L233.982 181.912C232.948 180.908 231.53 180.399 230.093 180.517C228.657 180.634 227.34 181.365 226.482 182.524L220.573 190.501L209.569 175.094C208.635 173.787 207.13 173.008 205.524 173C203.918 172.992 202.406 173.756 201.46 175.054L188.37 193.006L180.958 180.86L175.058 190.388Z" fill="#29A8FD"/>
</svg>
