<svg width="500" height="500" viewBox="0 0 500 500" fill="none" xmlns="http://www.w3.org/2000/svg">
<circle cx="250" cy="250" r="250" fill="#29A8FD" fill-opacity="0.25"/>
<path fill-rule="evenodd" clip-rule="evenodd" d="M230.921 62.5947L62.2499 230.729C65.2255 232.351 67.7945 234.624 69.7649 237.358L237.671 69.9864C234.905 68.0634 232.591 65.5357 230.921 62.5947ZM255.933 73.3397L327.567 228.086C330.276 226.18 333.425 224.856 336.832 224.297L264.969 69.0561L426.589 209.304C428.424 206.464 430.882 204.063 433.77 202.296L270.914 60.9744C268.079 67.0731 262.591 71.6889 255.933 73.3397ZM430.186 237.984C432.677 240.3 435.694 242.058 439.038 243.058L269.373 436.245C266.311 431.539 261.536 428.05 255.933 426.66L330.094 266.454C333.05 267.999 336.392 268.906 339.938 268.993L269.706 420.712L430.186 237.984ZM423.214 224.616C423.691 228.062 424.95 231.259 426.804 234.023L362.692 250.234C362.894 249.019 363 247.772 363 246.5C363 244.268 362.675 242.112 362.07 240.076L423.214 224.616ZM318.049 245C318.017 245.496 318 245.996 318 246.5C318 249.508 318.59 252.377 319.661 255H73.5499C73.8451 253.546 74 252.041 74 250.5C74 248.603 73.7651 246.76 73.3229 245H318.049ZM62.8896 269.908C65.8016 268.196 68.2942 265.847 70.1761 263.052L237.671 430.014C234.905 431.937 232.591 434.464 230.921 437.405L62.8896 269.908Z" fill="#29A8FD"/>
<path d="M263 51.5C263 58.4036 257.404 64 250.5 64C243.596 64 238 58.4036 238 51.5C238 44.5964 243.596 39 250.5 39C257.404 39 263 44.5964 263 51.5Z" fill="#29A8FD"/>
<path d="M353 246.5C353 253.404 347.404 259 340.5 259C333.596 259 328 253.404 328 246.5C328 239.596 333.596 234 340.5 234C347.404 234 353 239.596 353 246.5Z" fill="#29A8FD"/>
<path d="M458 221.5C458 228.404 452.404 234 445.5 234C438.596 234 433 228.404 433 221.5C433 214.596 438.596 209 445.5 209C452.404 209 458 214.596 458 221.5Z" fill="#29A8FD"/>
<path d="M64 250.5C64 257.404 58.4036 263 51.5 263C44.5964 263 39 257.404 39 250.5C39 243.596 44.5964 238 51.5 238C58.4036 238 64 243.596 64 250.5Z" fill="#29A8FD"/>
<path d="M263 448.5C263 455.404 257.404 461 250.5 461C243.596 461 238 455.404 238 448.5C238 441.596 243.596 436 250.5 436C257.404 436 263 441.596 263 448.5Z" fill="#29A8FD"/>
<path d="M244.611 422.812L232.603 410.842L229.059 401.23C228.103 398.639 229.429 395.764 232.02 394.809C234.611 393.853 237.486 395.179 238.441 397.77L245.741 417.57C246.434 419.448 245.928 421.475 244.611 422.812Z" fill="#29A8FD"/>
<path d="M232.834 88.9274L244.458 77.3399C245.884 78.6683 246.457 80.769 245.747 82.7144L238.447 102.714C237.5 105.308 234.63 106.644 232.036 105.697C229.442 104.75 228.106 101.88 229.053 99.2856L232.834 88.9274Z" fill="#29A8FD"/>
<path d="M231.147 122.714C232.094 120.12 230.758 117.25 228.164 116.303C225.57 115.356 222.7 116.692 221.753 119.286L214.453 139.286C213.506 141.88 214.842 144.75 217.436 145.697C220.03 146.644 222.9 145.308 223.847 142.714L231.147 122.714Z" fill="#29A8FD"/>
<path d="M213.564 156.303C216.158 157.25 217.494 160.12 216.547 162.714L209.247 182.714C208.3 185.308 205.43 186.644 202.836 185.697C200.242 184.75 198.906 181.88 199.853 179.286L207.153 159.286C208.1 156.692 210.97 155.356 213.564 156.303Z" fill="#29A8FD"/>
<path d="M201.947 202.714C202.894 200.12 201.558 197.25 198.964 196.303C196.37 195.356 193.5 196.692 192.553 199.286L185.253 219.286C184.306 221.88 185.642 224.75 188.236 225.697C190.83 226.644 193.7 225.308 194.647 222.714L201.947 202.714Z" fill="#29A8FD"/>
<path d="M194.641 278.97C193.686 276.379 190.811 275.053 188.22 276.009C185.629 276.964 184.303 279.839 185.259 282.43L192.559 302.23C193.514 304.821 196.389 306.147 198.98 305.191C201.571 304.236 202.897 301.361 201.941 298.77L194.641 278.97Z" fill="#29A8FD"/>
<path d="M202.82 315.609C205.411 314.653 208.286 315.979 209.241 318.57L216.541 338.37C217.497 340.961 216.171 343.836 213.58 344.791C210.989 345.747 208.114 344.421 207.159 341.83L199.859 322.03C198.903 319.439 200.229 316.564 202.82 315.609Z" fill="#29A8FD"/>
<path d="M223.841 358.17C222.886 355.579 220.011 354.253 217.42 355.209C214.829 356.164 213.503 359.039 214.459 361.63L221.759 381.43C222.714 384.021 225.589 385.347 228.18 384.391C230.771 383.436 232.097 380.561 231.141 377.97L223.841 358.17Z" fill="#29A8FD"/>
</svg>
