<svg width="500" height="500" viewBox="0 0 500 500" fill="none" xmlns="http://www.w3.org/2000/svg">
<circle cx="250" cy="250" r="250" fill="#29A8FD" fill-opacity="0.25"/>
<circle cx="250.5" cy="51.5" r="12.5" fill="#29A8FD"/>
<path fill-rule="evenodd" clip-rule="evenodd" d="M177.953 239.286L177.692 240H187.55C187.213 238.356 186.056 236.921 184.364 236.303C181.77 235.356 178.9 236.692 177.953 239.286ZM245.747 82.7144C246.694 80.1203 245.358 77.2499 242.764 76.3031C240.17 75.3563 237.3 76.6916 236.353 79.2856L229.053 99.2856C228.106 101.88 229.442 104.75 232.036 105.697C234.63 106.644 237.5 105.308 238.447 102.714L245.747 82.7144ZM231.147 122.714C232.094 120.12 230.758 117.25 228.164 116.303C225.57 115.356 222.7 116.692 221.753 119.286L214.453 139.286C213.506 141.88 214.842 144.75 217.436 145.697C220.03 146.644 222.9 145.308 223.847 142.714L231.147 122.714ZM216.547 162.714C217.494 160.12 216.158 157.25 213.564 156.303C210.97 155.356 208.1 156.692 207.153 159.286L199.853 179.286C198.906 181.88 200.242 184.75 202.836 185.697C205.43 186.644 208.3 185.308 209.247 182.714L216.547 162.714ZM201.947 202.714C202.894 200.12 201.558 197.25 198.964 196.303C196.37 195.356 193.5 196.692 192.553 199.286L185.253 219.286C184.306 221.88 185.642 224.75 188.236 225.697C190.83 226.644 193.7 225.308 194.647 222.714L201.947 202.714ZM176.989 260L177.959 262.63C178.914 265.221 181.789 266.547 184.38 265.591C186.696 264.737 188.002 262.348 187.569 260H176.989ZM242.78 423.991C241.068 424.622 239.232 424.258 237.908 423.19L237.166 422.451C236.829 422.036 236.554 421.559 236.359 421.03L229.059 401.23C228.103 398.639 229.429 395.764 232.02 394.809C234.611 393.853 237.486 395.179 238.441 397.77L245.741 417.57C246.697 420.161 245.371 423.036 242.78 423.991ZM194.641 278.97C193.686 276.379 190.811 275.053 188.22 276.009C185.629 276.964 184.303 279.839 185.259 282.43L192.559 302.23C193.514 304.821 196.389 306.147 198.98 305.191C201.571 304.236 202.897 301.361 201.941 298.77L194.641 278.97ZM209.241 318.57C208.286 315.979 205.411 314.653 202.82 315.609C200.229 316.564 198.903 319.439 199.859 322.03L207.159 341.83C208.114 344.421 210.989 345.747 213.58 344.791C216.171 343.836 217.497 340.961 216.541 338.37L209.241 318.57ZM223.841 358.17C222.886 355.579 220.011 354.253 217.42 355.209C214.829 356.164 213.503 359.039 214.459 361.63L221.759 381.43C222.714 384.021 225.589 385.347 228.18 384.391C230.771 383.436 232.097 380.561 231.141 377.97L223.841 358.17Z" fill="#29A8FD"/>
<circle cx="340.5" cy="246.5" r="12.5" fill="#29A8FD"/>
<circle cx="445.5" cy="221.5" r="12.5" fill="#29A8FD"/>
<circle cx="51.5" cy="250.5" r="12.5" fill="#29A8FD"/>
<circle cx="250.5" cy="448.5" r="12.5" fill="#29A8FD"/>
<path fill-rule="evenodd" clip-rule="evenodd" d="M58.5077 234.46L234.634 58.8936C236.079 61.9897 238.404 64.5928 241.287 66.3814L66.1647 240.947C64.309 238.104 61.649 235.834 58.5077 234.46ZM59.1925 266.223L234.634 441.106C236.079 438.01 238.404 435.407 241.287 433.619L66.5492 259.437C64.8137 262.353 62.2545 264.722 59.1925 266.223ZM68.416 255H325.199C323.798 252.483 323 249.585 323 246.5C323 245.995 323.021 245.494 323.063 245H68.1183C68.6904 246.73 69 248.579 69 250.5C69 252.056 68.797 253.564 68.416 255ZM329.712 232.72C332.324 230.672 335.534 229.35 339.037 229.06L264.969 69.0561L430.415 212.624C432.147 209.685 434.715 207.297 437.791 205.785L266.936 57.5226C264.846 63.2252 259.873 67.5373 253.782 68.6928L329.712 232.72ZM442.786 238.791C439.214 238.235 435.999 236.598 433.487 234.225L269.706 420.712L342.291 263.909C341.702 263.969 341.105 264 340.5 264C337.496 264 334.668 263.243 332.198 261.909L253.782 431.307C259.029 432.303 263.447 435.641 265.906 440.193L442.786 238.791ZM357.242 251.612L432.05 232.696C429.898 230.115 428.476 226.904 428.1 223.38L357.216 241.304C357.725 242.945 358 244.691 358 246.5C358 248.278 357.735 249.995 357.242 251.612Z" fill="#29A8FD"/>
</svg>
