<svg width="500" height="500" viewBox="0 0 500 500" fill="none" xmlns="http://www.w3.org/2000/svg">
<circle cx="250" cy="250" r="250" fill="#29A8FD" fill-opacity="0.25"/>
<path d="M103 380.537L397 382" stroke="#29A8FD" stroke-width="10" stroke-linecap="round"/>
<circle cx="124.439" cy="174.951" r="25.9268" stroke="#29A8FD" stroke-width="10"/>
<path d="M125.073 105.829L125.073 124.854" stroke="#29A8FD" stroke-width="10" stroke-linecap="round"/>
<path d="M125.073 225.049L125.073 244.073" stroke="#29A8FD" stroke-width="10" stroke-linecap="round"/>
<path d="M194.195 174.951L175.171 174.951" stroke="#29A8FD" stroke-width="10" stroke-linecap="round"/>
<path d="M74.9756 174.951L55.9513 174.951" stroke="#29A8FD" stroke-width="10" stroke-linecap="round"/>
<path d="M173.95 223.828L160.498 210.376" stroke="#29A8FD" stroke-width="10" stroke-linecap="round"/>
<path d="M89.6489 139.527L76.1967 126.075" stroke="#29A8FD" stroke-width="10" stroke-linecap="round"/>
<path d="M76.1967 223.828L89.649 210.376" stroke="#29A8FD" stroke-width="10" stroke-linecap="round"/>
<path d="M160.498 139.527L173.95 126.075" stroke="#29A8FD" stroke-width="10" stroke-linecap="round"/>
<path d="M265 381.768C265 390.329 258.06 397.268 249.5 397.268C240.94 397.268 234 390.329 234 381.768C234 373.208 240.94 366.268 249.5 366.268C258.06 366.268 265 373.208 265 381.768Z" fill="#29A8FD"/>
<path fill-rule="evenodd" clip-rule="evenodd" d="M425.732 237.731C427.833 235.939 428.084 232.783 426.292 230.682C424.5 228.581 421.344 228.331 419.243 230.123L411.577 236.661C409.476 238.453 409.225 241.608 411.017 243.709C412.809 245.811 415.965 246.061 418.066 244.269L425.732 237.731ZM398.901 260.615C401.002 258.823 401.253 255.667 399.461 253.566C397.669 251.465 394.513 251.214 392.412 253.006L377.08 266.082C374.978 267.874 374.728 271.03 376.52 273.131C378.312 275.232 381.468 275.483 383.569 273.691L398.901 260.615ZM364.403 290.036C366.504 288.244 366.755 285.088 364.963 282.987C363.171 280.886 360.015 280.635 357.914 282.427L342.582 295.503C340.481 297.295 340.23 300.451 342.022 302.552C343.814 304.653 346.97 304.904 349.071 303.112L364.403 290.036ZM329.906 319.457C332.007 317.665 332.257 314.51 330.466 312.408C328.674 310.307 325.518 310.057 323.417 311.849L308.084 324.925C305.983 326.717 305.733 329.873 307.525 331.974C309.317 334.075 312.472 334.325 314.574 332.534L329.906 319.457ZM295.408 348.879C297.509 347.087 297.76 343.931 295.968 341.83C294.176 339.729 291.02 339.478 288.919 341.27L273.587 354.346C271.486 356.138 271.235 359.294 273.027 361.395C274.819 363.496 277.975 363.747 280.076 361.955L295.408 348.879ZM262.544 373.391C262.939 375.145 262.373 377.053 260.911 378.3L253.245 384.838C251.143 386.63 247.988 386.38 246.196 384.279C244.404 382.177 244.654 379.022 246.755 377.23L254.422 370.692C255.825 369.495 257.699 369.209 259.322 369.777C260.575 370.805 261.664 372.024 262.544 373.391Z" fill="#29A8FD"/>
<path fill-rule="evenodd" clip-rule="evenodd" d="M401.427 135.006C402.831 132.628 402.042 129.562 399.665 128.158C397.287 126.754 394.221 127.543 392.817 129.921L387.368 139.147C385.963 141.525 386.753 144.591 389.13 145.995C391.508 147.399 394.574 146.61 395.978 144.232L401.427 135.006ZM382.356 167.299C383.76 164.921 382.971 161.855 380.593 160.451C378.215 159.047 375.15 159.836 373.745 162.213L362.847 180.666C361.443 183.044 362.232 186.11 364.61 187.514C366.988 188.918 370.054 188.129 371.458 185.752L382.356 167.299ZM357.835 208.818C359.24 206.44 358.451 203.374 356.073 201.97C353.695 200.566 350.629 201.355 349.225 203.732L338.327 222.185C336.923 224.563 337.712 227.629 340.09 229.033C342.467 230.437 345.533 229.648 346.938 227.271L357.835 208.818ZM333.315 250.337C334.719 247.959 333.93 244.893 331.552 243.489C329.175 242.085 326.109 242.874 324.705 245.252L313.807 263.704C312.402 266.082 313.192 269.148 315.569 270.552C317.947 271.957 321.013 271.167 322.417 268.79L333.315 250.337ZM308.795 291.856C310.199 289.478 309.41 286.412 307.032 285.008C304.654 283.604 301.589 284.393 300.184 286.771L289.286 305.223C287.882 307.601 288.671 310.667 291.049 312.071C293.427 313.476 296.493 312.686 297.897 310.309L308.795 291.856ZM284.274 333.375C285.679 330.997 284.89 327.931 282.512 326.527C280.134 325.123 277.068 325.912 275.664 328.29L264.766 346.743C263.362 349.12 264.151 352.186 266.529 353.59C268.906 354.995 271.972 354.205 273.377 351.828L284.274 333.375ZM260.063 370.425C260.648 371.83 260.587 373.483 259.754 374.894L254.305 384.12C252.901 386.498 249.835 387.287 247.457 385.883C245.08 384.479 244.29 381.413 245.695 379.035L251.144 369.809C252.033 368.302 253.59 367.434 255.216 367.356C257.023 368.074 258.664 369.122 260.063 370.425Z" fill="#29A8FD"/>
<path fill-rule="evenodd" clip-rule="evenodd" d="M327.152 84.1786C327.803 81.495 326.155 78.7918 323.471 78.1409C320.788 77.49 318.085 79.1378 317.434 81.8214L315.139 91.2833C314.488 93.9669 316.136 96.6701 318.819 97.321C321.503 97.9719 324.206 96.3241 324.857 93.6405L327.152 84.1786ZM319.119 117.295C319.77 114.612 318.122 111.908 315.439 111.257C312.755 110.607 310.052 112.254 309.401 114.938L304.811 133.862C304.16 136.545 305.808 139.248 308.492 139.899C311.175 140.55 313.878 138.902 314.529 136.219L319.119 117.295ZM308.792 159.874C309.443 157.19 307.795 154.487 305.111 153.836C302.428 153.185 299.725 154.833 299.074 157.516L294.484 176.44C293.833 179.124 295.48 181.827 298.164 182.478C300.848 183.129 303.551 181.481 304.202 178.797L308.792 159.874ZM298.464 202.452C299.115 199.768 297.467 197.065 294.784 196.414C292.1 195.763 289.397 197.411 288.746 200.095L284.156 219.018C283.505 221.702 285.153 224.405 287.837 225.056C290.52 225.707 293.223 224.059 293.874 221.376L298.464 202.452ZM288.137 245.03C288.788 242.347 287.14 239.644 284.456 238.993C281.773 238.342 279.069 239.99 278.419 242.673L273.829 261.597C273.178 264.28 274.825 266.984 277.509 267.635C280.193 268.285 282.896 266.638 283.547 263.954L288.137 245.03ZM277.809 287.609C278.46 284.925 276.812 282.222 274.129 281.571C271.445 280.92 268.742 282.568 268.091 285.252L263.501 304.175C262.85 306.859 264.498 309.562 267.182 310.213C269.865 310.864 272.568 309.216 273.219 306.532L277.809 287.609ZM267.482 330.187C268.133 327.503 266.485 324.8 263.801 324.149C261.118 323.498 258.414 325.146 257.763 327.83L253.173 346.754C252.523 349.437 254.17 352.14 256.854 352.791C259.538 353.442 262.241 351.794 262.892 349.111L267.482 330.187ZM254.461 367.079C256.545 368.078 257.721 370.429 257.154 372.766L254.859 382.227C254.208 384.911 251.505 386.559 248.821 385.908C246.138 385.257 244.49 382.554 245.141 379.87L247.436 370.408C248.027 367.973 250.307 366.391 252.729 366.605C253.319 366.73 253.897 366.889 254.461 367.079Z" fill="#29A8FD"/>
<path fill-rule="evenodd" clip-rule="evenodd" d="M164 253.823C162.38 251.586 159.254 251.087 157.018 252.707C154.781 254.327 154.282 257.453 155.902 259.69L231.362 363.845C233.71 361.469 236.521 359.552 239.65 358.24L164 253.823ZM245.79 366.715C242.408 367.546 239.463 369.486 237.362 372.128L245.951 383.982C247.571 386.218 250.697 386.718 252.933 385.098C255.17 383.478 255.669 380.352 254.049 378.115L245.79 366.715Z" fill="#29A8FD"/>
</svg>
