<svg width="500" height="500" viewBox="0 0 500 500" fill="none" xmlns="http://www.w3.org/2000/svg">
<path d="M94 166L82 168.074V370.946C82 370.946 126.493 356.756 166.592 355.179C206.691 353.602 249.5 370.946 249.5 370.946C249.5 370.946 292.309 354.572 332.408 356.157C372.507 357.741 417 372 417 372V168.147L403.5 166" stroke="#29A8FD" stroke-width="10" stroke-linejoin="round"/>
<circle cx="250" cy="250" r="250" fill="#29A8FD" fill-opacity="0.25"/>
<path fill-rule="evenodd" clip-rule="evenodd" d="M243.59 157.618C238.502 153.828 215.584 138.397 179.333 138.007C138 137.563 114 158.451 114 158.451C107.435 150.908 107.438 150.906 107.441 150.903L107.449 150.896L107.465 150.882L107.504 150.849C107.533 150.824 107.568 150.794 107.609 150.759C107.691 150.69 107.797 150.601 107.927 150.494C108.187 150.28 108.543 149.994 108.992 149.646C109.89 148.951 111.167 148.007 112.808 146.902C116.087 144.692 120.842 141.821 126.967 138.987C139.229 133.314 157.031 127.767 179.441 128.008C201.727 128.247 219.426 133.764 231.624 139.286C237.72 142.046 242.454 144.812 245.72 146.935C247.12 147.844 248.253 148.637 249.111 149.264C249.97 148.637 251.103 147.844 252.502 146.935C255.769 144.812 260.502 142.046 266.598 139.286C278.796 133.764 296.495 128.247 318.781 128.008C341.191 127.767 358.993 133.314 371.255 138.987C377.381 141.821 382.135 144.692 385.415 146.902C387.056 148.007 388.332 148.951 389.23 149.646C389.68 149.994 390.035 150.28 390.295 150.494C390.425 150.601 390.531 150.69 390.613 150.759C390.654 150.794 390.689 150.824 390.718 150.849L390.758 150.882L390.774 150.896L390.781 150.903C390.784 150.906 390.787 150.908 384.222 158.451C384.222 158.451 360.222 137.563 318.889 138.007C282.638 138.397 259.72 153.828 254.632 157.618C254.655 157.894 254.667 158.172 254.667 158.451V337.018C256.144 335.769 259.099 333.467 263.556 330.871C273.865 324.866 292.211 317.293 318.889 317.563C345.567 317.832 363.913 325.291 374.222 331.122C380.916 334.907 384.222 338.007 384.222 338.007V158.451L390.787 150.908C392.97 152.808 394.222 155.559 394.222 158.451V338.007C394.222 341.993 391.855 345.598 388.198 347.183C384.561 348.758 380.339 348.037 377.433 345.349C377.424 345.341 377.404 345.323 377.375 345.297C377.292 345.225 377.129 345.084 376.886 344.885C376.4 344.487 375.594 343.856 374.465 343.066C372.208 341.486 368.668 339.273 363.827 337.013C354.173 332.508 339.241 327.769 318.788 327.562C298.446 327.357 283.612 332.073 274.027 336.644C269.216 338.939 265.697 341.212 263.452 342.842C262.33 343.657 261.528 344.31 261.044 344.722C260.802 344.928 260.641 345.073 260.559 345.148C260.534 345.171 260.517 345.187 260.506 345.196L260.502 345.201C257.626 347.978 253.369 348.777 249.68 347.226C249.487 347.144 249.297 347.057 249.111 346.965C248.925 347.057 249.304 346.884 249.111 346.965C245.422 348.516 240.596 347.978 237.721 345.201L237.716 345.196C237.709 345.191 237.7 345.182 237.689 345.171C237.681 345.165 237.673 345.157 237.664 345.148C237.582 345.073 237.42 344.928 237.178 344.722C236.695 344.31 235.893 343.657 234.77 342.842C232.525 341.212 229.006 338.939 224.195 336.644C214.61 332.073 199.776 327.357 179.434 327.562C158.982 327.769 144.049 332.508 134.396 337.013C129.554 339.273 126.014 341.486 123.757 343.066C122.629 343.856 121.822 344.487 121.336 344.885C121.093 345.084 120.93 345.225 120.847 345.297C120.818 345.323 120.799 345.341 120.79 345.349C117.883 348.037 113.661 348.758 110.025 347.183C106.367 345.598 104 341.993 104 338.007V158.451C104 155.559 105.253 152.808 107.435 150.908L114 158.451V338.007C114 338.007 117.306 334.907 124 331.122C134.31 325.291 152.655 317.832 179.333 317.563C206.012 317.293 224.357 324.866 234.667 330.871C239.123 333.467 242.078 335.769 243.556 337.018V158.451C243.556 158.172 243.567 157.894 243.59 157.618ZM249.112 153.117L249.111 153.116L249.11 153.117L249.111 153.118L249.112 153.117Z" fill="#29A8FD"/>
</svg>
