<svg width="500" height="500" viewBox="0 0 500 500" fill="none" xmlns="http://www.w3.org/2000/svg">
<circle cx="250" cy="250" r="250" fill="#29A8FD" fill-opacity="0.25"/>
<rect x="199" y="170" width="101" height="22" stroke="#29A8FD" stroke-width="10" stroke-linejoin="round"/>
<rect x="149" y="394" width="201" height="22" stroke="#29A8FD" stroke-width="10" stroke-linejoin="round"/>
<path fill-rule="evenodd" clip-rule="evenodd" d="M286.601 207H276.322L317.225 379H327.504L286.601 207ZM181.779 379H171.5L212.402 207H222.681L181.779 379Z" fill="#29A8FD"/>
<path fill-rule="evenodd" clip-rule="evenodd" d="M304.321 157.3C312.529 146.008 317.371 132.11 317.371 117.082C317.371 79.2659 286.715 48.61 248.899 48.61C211.084 48.61 180.428 79.2659 180.428 117.082C180.428 132.322 185.407 146.4 193.828 157.777C196.808 156.012 200.286 155 204 155H204.388C195.683 144.791 190.428 131.55 190.428 117.082C190.428 84.7887 216.606 58.61 248.899 58.61C281.192 58.61 307.371 84.7887 307.371 117.082C307.371 131.55 302.116 144.791 293.411 155H295C298.366 155 301.537 155.831 304.321 157.3Z" fill="#29A8FD"/>
</svg>
