<svg width="500" height="500" viewBox="0 0 500 500" fill="none" xmlns="http://www.w3.org/2000/svg">
<circle cx="250" cy="250" r="250" fill="#29A8FD" fill-opacity="0.25"/>
<path fill-rule="evenodd" clip-rule="evenodd" d="M224.935 197.522C225.574 194.835 223.914 192.139 221.227 191.5C218.541 190.862 215.845 192.522 215.206 195.208L168.357 392.214C167.718 394.901 169.378 397.597 172.065 398.235C174.751 398.874 177.447 397.214 178.086 394.528L224.935 197.522ZM274.068 197.522C273.429 194.835 275.089 192.139 277.776 191.5C280.462 190.862 283.158 192.522 283.797 195.208L330.646 392.214C331.285 394.901 329.625 397.597 326.938 398.235C324.252 398.874 321.556 397.214 320.917 394.528L274.068 197.522Z" fill="#29A8FD"/>
<rect x="199" y="170" width="101" height="22" stroke="#29A8FD" stroke-width="10" stroke-linejoin="round"/>
<rect x="149" y="394" width="201" height="22" stroke="#29A8FD" stroke-width="10" stroke-linejoin="round"/>
<path fill-rule="evenodd" clip-rule="evenodd" d="M258.662 174.742C286.308 170.096 307.371 146.048 307.371 117.082C307.371 84.7887 281.192 58.61 248.899 58.61C216.606 58.61 190.428 84.7887 190.428 117.082C190.428 146.048 211.491 170.096 239.137 174.742H211.956C192.992 162.567 180.428 141.291 180.428 117.082C180.428 79.2659 211.084 48.61 248.899 48.61C286.715 48.61 317.371 79.2659 317.371 117.082C317.371 141.291 304.807 162.567 285.843 174.742H258.662Z" fill="#29A8FD"/>
</svg>
